<?xml version="1.0" ?><!DOCTYPE svg  PUBLIC '-//W3C//DTD SVG 1.1//EN'  'http://www.w3.org/Graphics/SVG/1.1/DTD/svg11.dtd'><svg height="2048px" style="shape-rendering:geometricPrecision; text-rendering:geometricPrecision; image-rendering:optimizeQuality; fill-rule:evenodd; clip-rule:evenodd" viewBox="0 0 2048 2048" width="2048px" xml:space="preserve" xmlns="http://www.w3.org/2000/svg" xmlns:xlink="http://www.w3.org/1999/xlink"><defs><style type="text/css">
   <![CDATA[
    .fil5 {fill:none}
    .fil0 {fill:#1D58A6;fill-rule:nonzero}
    .fil2 {fill:#35A328;fill-rule:nonzero}
    .fil1 {fill:#9864AE;fill-rule:nonzero}
    .fil4 {fill:#F93537;fill-rule:nonzero}
    .fil3 {fill:#FE7D08;fill-rule:nonzero}
   ]]>
  </style></defs><g id="Layer_x0020_1"><g id="_391044288"><path class="fil0" d="M664.503 1008.93l0 666.141 0 28.2851 -24.5103 -14.1791c-71.1343,-41.1532 -135.028,-93.3615 -189.325,-154.26 -53.9847,-60.5504 -98.5619,-129.843 -131.413,-205.549l-4.42323 -10.1953 7.80591 -7.80473 313.972 -313.992 27.8941 11.5536z" id="_391044600"/><path class="fil1" d="M909.676 612.75l-603.792 603.787 -20.4343 20.4354 -6.94843 -28.0949c-7.42323,-30.0248 -13.089,-60.6319 -16.8638,-91.7044 -3.71811,-30.6036 -5.63977,-61.6997 -5.63977,-93.1737 0,-142.481 38.8406,-275.927 106.508,-390.337 70.0312,-118.407 170.962,-216.385 291.683,-282.848l10.7457 -5.91497 8.65867 8.65867 236.082 236.086 11.5536 11.5536 -11.5536 11.5524z" id="_391044792"/><path class="fil2" d="M742.125 1383.48l932.945 0 28.2851 0 -14.1791 24.5103c-67.5378,116.744 -164.981,214.086 -281.88,281.567 -112.874,65.1579 -243.78,102.443 -383.296,102.443 -50.1461,0 -99.2517,-4.84725 -146.873,-14.087 -48.8941,-9.48662 -96.0957,-23.5914 -141.13,-41.8229l-10.213 -4.13504 0 -10.9913 0 -321.143 0 -16.3406 16.3406 0z" id="_391045152"/><path class="fil3" d="M1383.48 1305.87l0 -932.949 0 -28.2839 24.5103 14.178c116.743,67.5308 214.084,164.972 281.566,281.871 65.1579,112.874 102.443,243.783 102.443,383.309 0,50.139 -4.84843,99.2469 -14.0894,146.874 -9.48544,48.8941 -23.5902,96.0946 -41.8217,141.128l-4.13504 10.213 -10.9925 0 -321.14 0 -16.3406 0 0 -16.3406z" id="_391044480"/><path class="fil4" d="M1294.32 862.694l-535.063 -535.046 -18.2421 -18.241 24.3059 -8.69528c40.8532,-14.6114 83.3753,-25.8803 127.237,-33.4607 42.7878,-7.39371 86.706,-11.2536 131.441,-11.2536 50.1378,0 99.2446,4.84843 146.869,14.0882 48.8953,9.48662 96.0993,23.5914 141.132,41.8205l10.148 4.10788 0.0011811 11.0185 0.0011811 524.107 0 39.3839 -27.8303 -27.8303z" id="_391044384"/></g></g><rect class="fil5" height="2048" width="2048"/></svg>